<svg width="165" height="48" viewBox="0 0 165 48" fill="none" xmlns="http://www.w3.org/2000/svg">
<path d="M15.3536 4.016V4.976C14.2656 5.008 13.4336 5.136 12.8576 5.36C12.3136 5.552 11.9456 5.936 11.7536 6.512C11.5616 7.056 11.4656 7.92 11.4656 9.104V33.488C11.4656 34.48 11.5296 35.216 11.6576 35.696C11.8176 36.176 12.1056 36.496 12.5216 36.656C12.9696 36.816 13.6256 36.896 14.4896 36.896H16.8416C17.9296 36.896 18.9536 36.64 19.9136 36.128C20.8736 35.616 21.7376 34.896 22.5056 33.968C23.2736 33.008 23.9136 31.872 24.4256 30.56C24.9376 29.248 25.3216 27.792 25.5776 26.192H26.6816C26.5856 27.28 26.5376 28.688 26.5376 30.416C26.5376 31.152 26.5536 32.224 26.5856 33.632C26.6176 35.04 26.7136 36.496 26.8736 38C25.2416 37.936 23.4016 37.904 21.3536 37.904C19.3056 37.872 17.4816 37.856 15.8816 37.856C15.0816 37.856 14.0576 37.856 12.8096 37.856C11.5616 37.856 10.2176 37.872 8.77756 37.904C7.33756 37.904 5.88156 37.92 4.40956 37.952C2.93756 37.952 1.54556 37.968 0.233563 38V37.04C1.25756 36.976 2.02556 36.848 2.53756 36.656C3.04956 36.464 3.38556 36.08 3.54556 35.504C3.73756 34.928 3.83356 34.064 3.83356 32.912V9.104C3.83356 7.92 3.73756 7.056 3.54556 6.512C3.38556 5.936 3.03356 5.552 2.48956 5.36C1.97756 5.136 1.22556 5.008 0.233563 4.976V4.016C1.03356 4.048 2.10556 4.08 3.44956 4.112C4.82556 4.144 6.28156 4.16 7.81756 4.16C9.22556 4.16 10.6016 4.144 11.9456 4.112C13.3216 4.08 14.4576 4.048 15.3536 4.016ZM53.0013 12.656V32.768C53.0013 34.208 53.2253 35.28 53.6733 35.984C54.1213 36.656 54.9213 36.992 56.0733 36.992V38C55.0813 37.904 54.0893 37.856 53.0973 37.856C51.7533 37.856 50.5053 37.904 49.3533 38C48.2013 38.096 47.1133 38.272 46.0893 38.528V34.208C45.3213 35.808 44.2493 36.96 42.8733 37.664C41.5293 38.336 40.0253 38.672 38.3613 38.672C37.0173 38.672 35.9293 38.496 35.0973 38.144C34.2653 37.792 33.6093 37.344 33.1293 36.8C32.5853 36.192 32.2013 35.392 31.9773 34.4C31.7533 33.408 31.6413 32.128 31.6413 30.56V18.416C31.6413 16.976 31.4173 15.92 30.9693 15.248C30.5533 14.544 29.7533 14.192 28.5693 14.192V13.184C29.5933 13.28 30.5853 13.328 31.5453 13.328C32.8893 13.328 34.1373 13.28 35.2893 13.184C36.4733 13.056 37.5613 12.88 38.5533 12.656V32.528C38.5533 33.328 38.6173 34.032 38.7453 34.64C38.9053 35.248 39.1933 35.728 39.6093 36.08C40.0253 36.4 40.6333 36.56 41.4333 36.56C42.2973 36.56 43.0653 36.32 43.7373 35.84C44.4413 35.36 45.0013 34.704 45.4173 33.872C45.8653 33.008 46.0893 32.048 46.0893 30.992V18.416C46.0893 16.976 45.8653 15.92 45.4173 15.248C45.0013 14.544 44.2013 14.192 43.0173 14.192V13.184C44.0413 13.28 45.0333 13.328 45.9933 13.328C47.3373 13.328 48.5853 13.28 49.7373 13.184C50.9213 13.056 52.0093 12.88 53.0013 12.656ZM67.9987 0.415998V33.536C67.9987 34.88 68.2227 35.792 68.6707 36.272C69.1507 36.752 69.9507 36.992 71.0707 36.992V38C70.4627 37.968 69.5507 37.936 68.3347 37.904C67.1187 37.84 65.8867 37.808 64.6387 37.808C63.3907 37.808 62.1267 37.84 60.8467 37.904C59.5987 37.936 58.6547 37.968 58.0147 38V36.992C59.1347 36.992 59.9187 36.752 60.3667 36.272C60.8467 35.792 61.0867 34.88 61.0867 33.536V6.176C61.0867 4.736 60.8627 3.68 60.4147 3.008C59.9987 2.304 59.1987 1.952 58.0147 1.952V0.943999C59.0387 1.04 60.0307 1.088 60.9907 1.088C62.3027 1.088 63.5507 1.04 64.7347 0.943999C65.9187 0.815999 67.0067 0.639998 67.9987 0.415998ZM83.1862 0.415998V33.536C83.1862 34.88 83.4102 35.792 83.8582 36.272C84.3382 36.752 85.1382 36.992 86.2582 36.992V38C85.6502 37.968 84.7382 37.936 83.5222 37.904C82.3062 37.84 81.0742 37.808 79.8262 37.808C78.5782 37.808 77.3142 37.84 76.0342 37.904C74.7862 37.936 73.8422 37.968 73.2022 38V36.992C74.3222 36.992 75.1062 36.752 75.5542 36.272C76.0342 35.792 76.2742 34.88 76.2742 33.536V6.176C76.2742 4.736 76.0502 3.68 75.6022 3.008C75.1862 2.304 74.3862 1.952 73.2022 1.952V0.943999C74.2262 1.04 75.2182 1.088 76.1782 1.088C77.4902 1.088 78.7382 1.04 79.9222 0.943999C81.1062 0.815999 82.1942 0.639998 83.1862 0.415998ZM94.9244 38.336C93.4844 38.336 92.2844 38.064 91.3244 37.52C90.3644 36.976 89.6604 36.256 89.2124 35.36C88.7644 34.432 88.5404 33.424 88.5404 32.336C88.5404 30.96 88.8444 29.84 89.4524 28.976C90.0924 28.112 90.9084 27.408 91.9004 26.864C92.8924 26.32 93.9324 25.872 95.0204 25.52C96.1404 25.168 97.1964 24.832 98.1884 24.512C99.2124 24.16 100.028 23.76 100.636 23.312C101.276 22.832 101.596 22.224 101.596 21.488V17.744C101.596 16.912 101.452 16.176 101.164 15.536C100.908 14.864 100.492 14.352 99.9164 14C99.3724 13.648 98.6524 13.472 97.7564 13.472C97.1164 13.472 96.4764 13.568 95.8364 13.76C95.1964 13.92 94.6684 14.208 94.2524 14.624C95.1484 14.944 95.8364 15.44 96.3164 16.112C96.8284 16.752 97.0844 17.488 97.0844 18.32C97.0844 19.408 96.7004 20.272 95.9324 20.912C95.1964 21.552 94.3164 21.872 93.2924 21.872C92.1404 21.872 91.2604 21.52 90.6524 20.816C90.0764 20.08 89.7884 19.2 89.7884 18.176C89.7884 17.248 90.0124 16.48 90.4604 15.872C90.9404 15.264 91.5964 14.688 92.4284 14.144C93.3244 13.632 94.3964 13.232 95.6444 12.944C96.9244 12.656 98.3004 12.512 99.7724 12.512C101.244 12.512 102.572 12.672 103.756 12.992C104.94 13.28 105.932 13.824 106.732 14.624C107.468 15.36 107.948 16.272 108.172 17.36C108.396 18.416 108.508 19.76 108.508 21.392V34.448C108.508 35.248 108.588 35.808 108.748 36.128C108.908 36.416 109.18 36.56 109.564 36.56C109.852 36.56 110.124 36.48 110.38 36.32C110.668 36.16 110.972 35.968 111.292 35.744L111.772 36.56C111.1 37.136 110.316 37.584 109.42 37.904C108.556 38.192 107.58 38.336 106.492 38.336C105.308 38.336 104.364 38.176 103.66 37.856C102.956 37.504 102.444 37.04 102.124 36.464C101.836 35.888 101.692 35.216 101.692 34.448C100.924 35.664 99.9964 36.624 98.9084 37.328C97.8204 38 96.4924 38.336 94.9244 38.336ZM98.3324 35.264C98.9724 35.264 99.5484 35.12 100.06 34.832C100.604 34.512 101.116 34 101.596 33.296V23.456C101.308 23.936 100.908 24.368 100.396 24.752C99.8844 25.136 99.3404 25.536 98.7644 25.952C98.1884 26.336 97.6284 26.768 97.0844 27.248C96.5724 27.728 96.1564 28.32 95.8364 29.024C95.5164 29.728 95.3564 30.576 95.3564 31.568C95.3564 32.816 95.6284 33.744 96.1724 34.352C96.7164 34.96 97.4364 35.264 98.3324 35.264ZM129.608 12.512C132.104 12.512 134.168 13.536 135.8 15.584C137.464 17.6 138.296 20.72 138.296 24.944C138.296 28.272 137.784 30.944 136.76 32.96C135.768 34.976 134.44 36.432 132.776 37.328C131.112 38.224 129.288 38.672 127.304 38.672C125.992 38.672 124.776 38.448 123.656 38C122.536 37.552 121.576 36.816 120.776 35.792L121.448 35.552C122.024 36.256 122.696 36.784 123.464 37.136C124.264 37.488 125.048 37.664 125.816 37.664C127.576 37.664 128.888 36.672 129.752 34.688C130.616 32.704 131.048 29.68 131.048 25.616C131.048 22.864 130.872 20.688 130.52 19.088C130.2 17.456 129.72 16.304 129.08 15.632C128.44 14.928 127.672 14.576 126.776 14.576C125.656 14.576 124.632 15.04 123.704 15.968C122.776 16.864 122.248 18.128 122.12 19.76L121.88 18.08C122.456 16.256 123.432 14.88 124.808 13.952C126.184 12.992 127.784 12.512 129.608 12.512ZM122.264 0.463997V37.04C121.464 36.912 120.648 36.912 119.816 37.04C118.984 37.168 118.216 37.392 117.512 37.712C116.808 38 116.216 38.352 115.736 38.768L115.016 38.336C115.144 37.888 115.224 37.44 115.256 36.992C115.32 36.544 115.352 36.096 115.352 35.648V6.224C115.352 4.784 115.128 3.728 114.68 3.056C114.264 2.352 113.464 2 112.28 2V0.991999C113.304 1.088 114.296 1.136 115.256 1.136C116.568 1.136 117.816 1.088 119 0.991999C120.184 0.863998 121.272 0.687998 122.264 0.463997ZM164.132 13.184V14.144C163.524 14.304 162.948 14.688 162.404 15.296C161.86 15.872 161.332 16.864 160.82 18.272L154.052 37.28L152.276 40.64L141.812 16.88C141.268 15.632 140.724 14.88 140.18 14.624C139.668 14.336 139.22 14.192 138.836 14.192V13.184C139.892 13.28 140.98 13.36 142.1 13.424C143.252 13.456 144.356 13.472 145.412 13.472C146.724 13.472 147.924 13.44 149.012 13.376C150.1 13.312 151.124 13.248 152.084 13.184V14.192C151.444 14.192 150.836 14.24 150.26 14.336C149.716 14.4 149.332 14.624 149.108 15.008C148.916 15.36 149.012 15.984 149.396 16.88L155.444 31.472L155.012 31.76L158.564 21.824C159.172 20.096 159.428 18.688 159.332 17.6C159.236 16.48 158.884 15.648 158.276 15.104C157.668 14.528 156.836 14.208 155.78 14.144V13.184C156.292 13.216 156.82 13.248 157.364 13.28C157.908 13.28 158.452 13.296 158.996 13.328C159.54 13.328 160.02 13.328 160.436 13.328C161.076 13.328 161.748 13.312 162.452 13.28C163.156 13.248 163.716 13.216 164.132 13.184ZM154.052 37.28L152.228 42.416C151.908 43.216 151.572 43.888 151.22 44.432C150.9 45.008 150.532 45.472 150.116 45.824C149.668 46.208 149.092 46.496 148.388 46.688C147.684 46.912 146.868 47.024 145.94 47.024C145.172 47.024 144.372 46.896 143.54 46.64C142.74 46.384 142.068 45.968 141.524 45.392C140.98 44.816 140.708 44.08 140.708 43.184C140.708 42.192 141.06 41.392 141.764 40.784C142.468 40.208 143.396 39.92 144.548 39.92C145.604 39.92 146.468 40.176 147.14 40.688C147.812 41.2 148.148 41.952 148.148 42.944C148.148 43.584 147.94 44.192 147.524 44.768C147.14 45.344 146.548 45.776 145.748 46.064C145.908 46.096 146.1 46.112 146.324 46.112C146.548 46.112 146.724 46.112 146.852 46.112C147.812 46.112 148.66 45.808 149.396 45.2C150.132 44.592 150.74 43.632 151.22 42.32L152.9 37.376L154.052 37.28Z" fill="#A18CE7"/>
</svg>
